<svg xmlns="http://www.w3.org/2000/svg" width="205.514" height="37.104" viewBox="0 0 205.514 37.104">
  <g id="LOGO" transform="translate(-219 -33)">
    <g id="Component_1_153" data-name="Component 1 – 153" transform="translate(219 33)">
      <g id="Group_2" data-name="Group 2" transform="translate(-140 -30)">
        <path id="Path_198" data-name="Path 198" d="M259.583,49.828h-8.375l-1.328,3.854h-3.826l6.886-19.254h4.989l6.887,19.254h-3.928ZM258.5,46.685l-.762-2.222c-.84-2.441-1.708-4.859-2.36-7.106-.65,2.25-1.518,4.718-2.359,7.16l-.732,2.171Z" transform="translate(-55.6 4.995)" fill="#0062a2"/>
        <path id="Path_199" data-name="Path 199" d="M281.786,34.428V53.682H278.5V51.865a4.985,4.985,0,0,1-4.42,2.224c-3.526,0-6.129-2.848-6.129-7.322,0-4.5,2.63-7.323,6.156-7.323a4.97,4.97,0,0,1,4.149,1.816V34.428ZM278.4,46.768c0-2.712-1.519-4.259-3.471-4.259-2.007,0-3.391,1.628-3.391,4.259,0,2.6,1.275,4.283,3.362,4.283C276.927,51.051,278.4,49.425,278.4,46.768Z" transform="translate(-57.731 4.995)" fill="#0062a2"/>
        <path id="Path_200" data-name="Path 200" d="M298.927,40.405l-4.72,13.854h-4.283l-4.693-13.854h3.716l1.382,4.524c.733,2.414,1.33,4.446,1.791,6.291.46-1.844,1.034-3.877,1.758-6.291l1.383-4.53Z" transform="translate(-59.412 4.414)" fill="#0062a2"/>
        <path id="Path_201" data-name="Path 201" d="M305.885,37.731H302.36V34.423h3.525Zm0,15.947H302.36V39.824h3.525Z" transform="translate(-61.079 4.995)" fill="#0062a2"/>
        <path id="Path_202" data-name="Path 202" d="M320.848,42.064l-1.9,2.3a6.072,6.072,0,0,0-4.149-1.628c-1.411,0-2.332.57-2.332,1.384,0,.895.895,1.059,3.227,1.573,3.8.84,5.368,1.843,5.368,4.42,0,2.658-2.171,4.529-5.939,4.529a9.08,9.08,0,0,1-6.7-2.63l2.034-2.274c2.035,1.654,3.119,2.06,4.746,2.06,1.383,0,2.413-.517,2.413-1.464,0-1.137-1.437-1.355-3.411-1.789-3.905-.867-5.1-1.845-5.1-4.312,0-2.36,2.062-4.343,5.776-4.343A8.406,8.406,0,0,1,320.848,42.064Z" transform="translate(-61.67 4.463)" fill="#0062a2"/>
        <path id="Path_203" data-name="Path 203" d="M338.66,47.271c0,4.393-2.982,7.376-7.186,7.376a6.961,6.961,0,0,1-7.22-6.693c-.009-.227-.006-.456.007-.683a6.962,6.962,0,0,1,6.53-7.369c.227-.014.455-.016.682-.008C335.678,39.894,338.66,42.879,338.66,47.271Zm-10.82,0c0,2.688,1.437,4.393,3.633,4.393,2.171,0,3.607-1.708,3.607-4.393,0-2.657-1.437-4.392-3.607-4.392C329.278,42.879,327.841,44.615,327.841,47.271Z" transform="translate(-63.209 4.463)" fill="#0062a2"/>
        <path id="Path_204" data-name="Path 204" d="M351.812,40.6l-.62,3.092a7.152,7.152,0,0,0-1.763-.271c-1.871,0-3.038,1.492-3.038,3.986v6.834h-3.525V40.39h3.28v2.035a3.666,3.666,0,0,1,3.471-2.224A7.132,7.132,0,0,1,351.812,40.6Z" transform="translate(-65.021 4.433)" fill="#0062a2"/>
        <path id="Path_205" data-name="Path 205" d="M368.695,48.158c0,2.929-2.275,6.047-6.753,6.047a11.442,11.442,0,0,1-6.97-2.331l1.492-2.2c2.171,1.328,3.579,1.9,5.4,1.9,2.333,0,3.742-1.411,3.742-3.39,0-2.035-1.551-3.254-3.985-3.254a5.759,5.759,0,0,0-2.171.352l-1.384-1.871,6.266-5.505H355.9V35.329h12.149v2.522l-5.452,4.8C366.038,42.651,368.695,44.658,368.695,48.158Z" transform="translate(-66.199 4.907)" fill="#4e9ed7"/>
        <path id="Path_206" data-name="Path 206" d="M386.712,47.831c0,3.254-2.441,6.372-6.834,6.372-4.366,0-7-3.037-7-7.4,0-4.095,2.385-7.35,5.531-10.332l1.221-1.137H383.7v.055l-3.038,2.765a18.123,18.123,0,0,0-4.04,4.86,5.616,5.616,0,0,1,3.928-1.356,6.022,6.022,0,0,1,6.16,5.881Q386.716,47.684,386.712,47.831Zm-3.065.054a3.508,3.508,0,0,0-3.317-3.69,3.445,3.445,0,0,0-.4,0,3.7,3.7,0,1,0-.472,7.375,3.485,3.485,0,0,0,.445,0,3.531,3.531,0,0,0,3.74-3.308,3.322,3.322,0,0,0,0-.379Z" transform="translate(-67.942 4.907)" fill="#4e9ed7"/>
        <path id="Path_207" data-name="Path 207" d="M403.135,38.32a13.886,13.886,0,0,1,1.274,6.183,13.9,13.9,0,0,1-1.274,6.183,6.543,6.543,0,0,1-11.554,0,13.907,13.907,0,0,1-1.274-6.183,13.911,13.911,0,0,1,1.274-6.183,6.543,6.543,0,0,1,11.554,0Zm-8.845,1.275a11.959,11.959,0,0,0-.867,4.909,11.955,11.955,0,0,0,.867,4.908,3.278,3.278,0,0,0,6.129,0,11.954,11.954,0,0,0,.867-4.908,11.958,11.958,0,0,0-.867-4.909,3.278,3.278,0,0,0-6.129,0Z" transform="translate(-69.637 4.954)" fill="#4e9ed7"/>
        <path id="Path_208" data-name="Path 208" d="M408.787,38.006a4.082,4.082,0,1,1,4.15,4.013h-.082a3.96,3.96,0,0,1-4.067-3.852C408.787,38.113,408.786,38.06,408.787,38.006Zm6.238,0a2.156,2.156,0,0,0-4.311,0v0a2.156,2.156,0,0,0,4.311,0Z" transform="translate(-71.436 5.051)" fill="#4e9ed7"/>
        <g id="Group_1" data-name="Group 1" transform="translate(140 30)">
          <path id="Path_209" data-name="Path 209" d="M198.846,38.991c0,.122,0,.243.007.361,0,.055.006.1.011.163s.007.126.012.19.014.144.021.215a1.033,1.033,0,0,0,.014.127c.012.084.024.168.037.25a.282.282,0,0,0,.013.081c.015.095.032.189.053.282l.007.041c.626,2.967,2.946,5.153,6.813,6.4l.2.062.185.057c.1.032.207.061.311.089l.072.021a23.546,23.546,0,0,0,5.663.815c6.892,0,9.787-2.705,10.171-5.021a3.585,3.585,0,0,0-.169-1.832,6.08,6.08,0,0,1,2,3.339v.017c.014.06.024.124.035.188.009.042.017.085.024.128s.015.108.023.162.014.113.021.17.01.095.014.143c.006.068.011.136.014.207,0,.039.006.078.007.117,0,.11.007.219.007.331-.005,4.874-7.049,7.889-13.572,7.889-4.725,0-11.352-.835-16.091-4.823a11.926,11.926,0,0,1-4.587-8.748,14.286,14.286,0,0,1,6.824-12.257A27.794,27.794,0,0,1,212.254,24a26.582,26.582,0,0,1,15.259,4.323,15.648,15.648,0,0,1,6.678,11.036l-.023-.039q-.141-.264-.3-.517a.876.876,0,0,0-.047-.079c-.1-.172-.213-.343-.327-.517-.015-.024-.033-.05-.05-.074q-.171-.255-.357-.5l-.05-.069c-.126-.168-.255-.335-.39-.5L232.6,37c-.136-.167-.276-.332-.422-.495l-.042-.049q-.223-.246-.458-.487l-.036-.036c-.162-.162-.328-.322-.5-.481l-.023-.019c-.176-.162-.357-.322-.542-.477-5.031-4.232-11.97-5.119-16.9-5.119A21.358,21.358,0,0,0,203.6,32.231c-3.07,1.708-4.756,4.11-4.756,6.76" transform="translate(-190.161 -23.989)" fill="#4e9ed7"/>
          <path id="Path_210" data-name="Path 210" d="M197.094,57.529a26.58,26.58,0,0,0,15.258,4.321A27.783,27.783,0,0,0,227.625,57.7a14.286,14.286,0,0,0,6.821-12.253,11.928,11.928,0,0,0-4.582-8.75c-4.74-3.99-11.367-4.827-16.091-4.827-6.528,0-13.572,3.016-13.572,7.89,0,.11,0,.222.007.331l.008.117c0,.069.009.138.014.207l.014.144c.006.056.013.112.021.167s.014.1.023.162.015.086.023.129q.015.095.035.19v.015a6.075,6.075,0,0,0,2,3.341,3.588,3.588,0,0,1-.169-1.832c.385-2.317,3.278-5.021,10.17-5.021a23.5,23.5,0,0,1,5.663.815h0l.071.021c.1.029.207.058.31.088l.185.056.2.064c3.864,1.241,6.185,3.432,6.811,6.4l.008.039c.02.092.036.187.053.283,0,.025.008.052.012.08.014.082.026.167.038.251a1.055,1.055,0,0,0,.014.127c.007.071.015.143.022.214s.007.127.011.19.007.108.01.162c0,.12.008.241.008.363,0,2.651-1.692,5.051-4.763,6.759a21.356,21.356,0,0,1-10.071,2.394c-4.934,0-11.873-.889-16.9-5.119-.186-.157-.366-.316-.543-.478l-.021-.02c-.172-.158-.337-.319-.5-.481-.013-.012-.024-.024-.036-.037q-.236-.238-.459-.487l-.044-.048c-.144-.162-.286-.327-.422-.493l-.05-.06c-.134-.163-.263-.33-.39-.5-.015-.022-.033-.043-.051-.067q-.186-.25-.357-.506c-.016-.025-.033-.05-.049-.075q-.171-.252-.327-.516l-.048-.079c-.1-.172-.2-.345-.3-.516l-.022-.041a15.649,15.649,0,0,0,6.68,11.039" transform="translate(-190.185 -24.756)" fill="#0062a2"/>
        </g>
      </g>
    </g>
  </g>
</svg>
